HIERARCHY
ROOT Hips
{
  OFFSET 56.5711 83.5676 52.1387
  CHANNELS 6 Xposition Yposition Zposition Zrotation Xrotation Yrotation
  JOINT Spine
  {
    OFFSET 0 8.5038 -4.6017
    CHANNELS 6 Xposition Yposition Zposition Zrotation Xrotation Yrotation
    JOINT Spine1
    {
      OFFSET 0 7.7603 0.405401
      CHANNELS 6 Xposition Yposition Zposition Zrotation Xrotation Yrotation
      JOINT Spine2
      {
        OFFSET 0 9.6025 -2.1374
        CHANNELS 6 Xposition Yposition Zposition Zrotation Xrotation Yrotation
        JOINT Neck
        {
          OFFSET 0 21.6389 -0.45
          CHANNELS 6 Xposition Yposition Zposition Zrotation Xrotation Yrotation
          JOINT Head
          {
            OFFSET -9.91394e-005 12.2197 3.3238
            CHANNELS 6 Xposition Yposition Zposition Zrotation Xrotation Yrotation
            End Site
            {
              OFFSET 0.0001 17.074 0.5097
            }
          }
        }
        JOINT LeftShoulder
        {
          OFFSET 2.1846 20.8826 7.1545
          CHANNELS 6 Xposition Yposition Zposition Zrotation Xrotation Yrotation
          JOINT LeftArm
          {
            OFFSET 12.7628 2.9953 -4.8467
            CHANNELS 6 Xposition Yposition Zposition Zrotation Xrotation Yrotation
            JOINT LeftForeArm
            {
              OFFSET 27.1108 -0.096033 -0.234889
              CHANNELS 6 Xposition Yposition Zposition Zrotation Xrotation Yrotation
              JOINT LeftHand
              {
                OFFSET 22.6162 0.0655939 -0.135497
                CHANNELS 6 Xposition Yposition Zposition Zrotation Xrotation Yrotation
                JOINT LeftHandIndex1
                {
                  OFFSET 8.7654 0.7666 2.4346
                  CHANNELS 6 Xposition Yposition Zposition Zrotation Xrotation Yrotation
                  JOINT LeftHandIndex2
                  {
                    OFFSET 3.2787 -0.7995 0.5777
                    CHANNELS 6 Xposition Yposition Zposition Zrotation Xrotation Yrotation
                    JOINT LeftHandIndex3
                    {
                      OFFSET 2.2383 -0.5459 0.3945
                      CHANNELS 6 Xposition Yposition Zposition Zrotation Xrotation Yrotation
                      End Site
                      {
                        OFFSET 1.5927 -0.4755 0.2584
                      }
                    }
                  }
                }
                JOINT LeftHandMiddle1
                {
                  OFFSET 8.8962 0.8853 0.212
                  CHANNELS 6 Xposition Yposition Zposition Zrotation Xrotation Yrotation
                  JOINT LeftHandMiddle2
                  {
                    OFFSET 4.0539 0.0113 -0.0239
                    CHANNELS 6 Xposition Yposition Zposition Zrotation Xrotation Yrotation
                    JOINT LeftHandMiddle3
                    {
                      OFFSET 2.2471 0.0069 -0.0137
                      CHANNELS 6 Xposition Yposition Zposition Zrotation Xrotation Yrotation
                      End Site
                      {
                        OFFSET 2.0183 -0.1425 0.0027
                      }
                    }
                  }
                }
                JOINT LeftHandRing1
                {
                  OFFSET 8.431 0.5908 -1.9946
                  CHANNELS 6 Xposition Yposition Zposition Zrotation Xrotation Yrotation
                  JOINT LeftHandRing2
                  {
                    OFFSET 3.6785 -0.1862 -0.2303
                    CHANNELS 6 Xposition Yposition Zposition Zrotation Xrotation Yrotation
                    JOINT LeftHandRing3
                    {
                      OFFSET 2.0962 -0.1055 -0.1317
                      CHANNELS 6 Xposition Yposition Zposition Zrotation Xrotation Yrotation
                      End Site
                      {
                        OFFSET 1.8534 -0.2279 -0.0876
                      }
                    }
                  }
                }
                JOINT LeftHandPinky1
                {
                  OFFSET 7.8236 -0.5945 -3.4447
                  CHANNELS 6 Xposition Yposition Zposition Zrotation Xrotation Yrotation
                  JOINT LeftHandPinky2
                  {
                    OFFSET 2.2626 -0.4719 -0.6246
                    CHANNELS 6 Xposition Yposition Zposition Zrotation Xrotation Yrotation
                    JOINT LeftHandPinky3
                    {
                      OFFSET 1.6592 -0.3455 -0.4583
                      CHANNELS 6 Xposition Yposition Zposition Zrotation Xrotation Yrotation
                      End Site
                      {
                        OFFSET 1.4727 -0.4046 -0.3379
                      }
                    }
                  }
                }
                JOINT LeftHandThumb1
                {
                  OFFSET 1.8133 -1.3724 1.3746
                  CHANNELS 6 Xposition Yposition Zposition Zrotation Xrotation Yrotation
                  JOINT LeftHandThumb2
                  {
                    OFFSET 3.376 -1.1087 2.5453
                    CHANNELS 6 Xposition Yposition Zposition Zrotation Xrotation Yrotation
                    JOINT LeftHandThumb3
                    {
                      OFFSET 2.223 -0.7955 1.6016
                      CHANNELS 6 Xposition Yposition Zposition Zrotation Xrotation Yrotation
                      End Site
                      {
                        OFFSET 1.6347 -0.5627 1.1194
                      }
                    }
                  }
                }
              }
            }
          }
        }
        JOINT RightShoulder
        {
          OFFSET -2.1846 20.8826 7.1545
          CHANNELS 6 Xposition Yposition Zposition Zrotation Xrotation Yrotation
          JOINT RightArm
          {
            OFFSET -12.7651 2.99578 -4.8475
            CHANNELS 6 Xposition Yposition Zposition Zrotation Xrotation Yrotation
            JOINT RightForeArm
            {
              OFFSET -27.1108 -0.0961839 -0.234921
              CHANNELS 6 Xposition Yposition Zposition Zrotation Xrotation Yrotation
              JOINT RightHand
              {
                OFFSET -22.6162 0.0655911 -0.135506
                CHANNELS 6 Xposition Yposition Zposition Zrotation Xrotation Yrotation
                JOINT RightHandIndex1
                {
                  OFFSET -8.7654 0.7667 2.4346
                  CHANNELS 6 Xposition Yposition Zposition Zrotation Xrotation Yrotation
                  JOINT RightHandIndex2
                  {
                    OFFSET -3.2787 -0.7995 0.5777
                    CHANNELS 6 Xposition Yposition Zposition Zrotation Xrotation Yrotation
                    JOINT RightHandIndex3
                    {
                      OFFSET -2.2383 -0.5461 0.3945
                      CHANNELS 6 Xposition Yposition Zposition Zrotation Xrotation Yrotation
                      End Site
                      {
                        OFFSET -1.5928 -0.4755 0.2584
                      }
                    }
                  }
                }
                JOINT RightHandMiddle1
                {
                  OFFSET -8.8962 0.8853 0.212
                  CHANNELS 6 Xposition Yposition Zposition Zrotation Xrotation Yrotation
                  JOINT RightHandMiddle2
                  {
                    OFFSET -4.0539 0.0113 -0.024
                    CHANNELS 6 Xposition Yposition Zposition Zrotation Xrotation Yrotation
                    JOINT RightHandMiddle3
                    {
                      OFFSET -2.2471 0.0069 -0.0137
                      CHANNELS 6 Xposition Yposition Zposition Zrotation Xrotation Yrotation
                      End Site
                      {
                        OFFSET -2.0183 -0.1425 0.0027
                      }
                    }
                  }
                }
                JOINT RightHandRing1
                {
                  OFFSET -8.431 0.5908 -1.9946
                  CHANNELS 6 Xposition Yposition Zposition Zrotation Xrotation Yrotation
                  JOINT RightHandRing2
                  {
                    OFFSET -3.6785 -0.1862 -0.2303
                    CHANNELS 6 Xposition Yposition Zposition Zrotation Xrotation Yrotation
                    JOINT RightHandRing3
                    {
                      OFFSET -2.0962 -0.1055 -0.1317
                      CHANNELS 6 Xposition Yposition Zposition Zrotation Xrotation Yrotation
                      End Site
                      {
                        OFFSET -1.8534 -0.2279 -0.0876
                      }
                    }
                  }
                }
                JOINT RightHandPinky1
                {
                  OFFSET -7.8236 -0.5945 -3.4447
                  CHANNELS 6 Xposition Yposition Zposition Zrotation Xrotation Yrotation
                  JOINT RightHandPinky2
                  {
                    OFFSET -2.2626 -0.4718 -0.624601
                    CHANNELS 6 Xposition Yposition Zposition Zrotation Xrotation Yrotation
                    JOINT RightHandPinky3
                    {
                      OFFSET -1.6592 -0.3454 -0.4583
                      CHANNELS 6 Xposition Yposition Zposition Zrotation Xrotation Yrotation
                      End Site
                      {
                        OFFSET -1.4727 -0.4046 -0.3379
                      }
                    }
                  }
                }
                JOINT RightHandThumb1
                {
                  OFFSET -1.8133 -1.3723 1.3745
                  CHANNELS 6 Xposition Yposition Zposition Zrotation Xrotation Yrotation
                  JOINT RightHandThumb2
                  {
                    OFFSET -3.3759 -1.1088 2.5454
                    CHANNELS 6 Xposition Yposition Zposition Zrotation Xrotation Yrotation
                    JOINT RightHandThumb3
                    {
                      OFFSET -2.223 -0.7954 1.6016
                      CHANNELS 6 Xposition Yposition Zposition Zrotation Xrotation Yrotation
                      End Site
                      {
                        OFFSET -1.6347 -0.5627 1.1194
                      }
                    }
                  }
                }
              }
            }
          }
        }
      }
    }
  }
  JOINT RightUpLeg
  {
    OFFSET -9.0969 3.8439 -0.749801
    CHANNELS 6 Xposition Yposition Zposition Zrotation Xrotation Yrotation
    JOINT RightLeg
    {
      OFFSET -0.727822 -39.5675 -2.91055e-005
      CHANNELS 6 Xposition Yposition Zposition Zrotation Xrotation Yrotation
      JOINT RightFoot
      {
        OFFSET 0 -38.8528 1.71912e-005
        CHANNELS 6 Xposition Yposition Zposition Zrotation Xrotation Yrotation
        JOINT RightToeBase
        {
          OFFSET 0 -4.2703 8.9297
          CHANNELS 6 Xposition Yposition Zposition Zrotation Xrotation Yrotation
          End Site
          {
            OFFSET 0 0 5.9906
          }
        }
      }
    }
  }
  JOINT LeftUpLeg
  {
    OFFSET 9.0968 3.8442 -0.749799
    CHANNELS 6 Xposition Yposition Zposition Zrotation Xrotation Yrotation
    JOINT LeftLeg
    {
      OFFSET 0.727938 -39.5676 -4.48256e-005
      CHANNELS 6 Xposition Yposition Zposition Zrotation Xrotation Yrotation
      JOINT LeftFoot
      {
        OFFSET 0 -38.8527 0
        CHANNELS 6 Xposition Yposition Zposition Zrotation Xrotation Yrotation
        JOINT LeftToeBase
        {
          OFFSET 0 -4.2703 8.9297
          CHANNELS 6 Xposition Yposition Zposition Zrotation Xrotation Yrotation
          End Site
          {
            OFFSET 0 0 5.9906
          }
        }
      }
    }
  }
}
MOTION
Frames:	4
Frame Time:	0.0333333
56.5711 83.5676 52.1387 -0.130285 0.0240398 79.5438 -2.15082e-007 8.5038 -4.6017 -0.620638 0.521912 0.231113 -8.47663e-008 7.7603 0.405401 -1.24345 1.04128 0.467921 1.89184e-007 9.6025 -2.1374 -1.24345 1.04128 0.467929 -1.77675e-006 21.6389 -0.45 -3.16284e-005 2.42838e-005 1.31572e-005 -9.91394e-005 12.2197 3.3238 23.0107 -36.729 16.7278 2.1846 20.8826 7.1545 3.76841 -0.29379 -4.36512 12.7628 2.9953 -4.8467 -74.2161 31.7212 5.90251 27.1108 -0.096033 -0.234889 -5.93062 0.382264 -56.3846 22.6162 0.0655939 -0.135497 21.5011 11.8989 -7.75768 8.7654 0.7666 2.4346 -1.59028e-015 3.18055e-015 -3.18055e-015 3.2787 -0.7995 0.5777 0 0 -1.59028e-015 2.2383 -0.5459 0.3945 -1.59028e-015 0 -0 8.8962 0.8853 0.212 -1.59028e-015 3.18055e-015 -3.18055e-015 4.0539 0.0113 -0.0239 -0.0166562 -0.000101548 -3.19348e-007 2.2471 0.0069 -0.0137 1.59028e-015 3.18055e-015 3.18055e-015 8.431 0.5908 -1.9946 -1.59028e-015 3.18055e-015 -3.18055e-015 3.6785 -0.1862 -0.2303 -0.0162996 -0.00102151 5.08996e-005 2.0962 -0.1055 -0.1317 0 3.18055e-015 -0 7.8236 -0.5945 -3.4447 -1.59028e-015 3.18055e-015 -3.18055e-015 2.2626 -0.4719 -0.6246 -0.0175662 -0.00465067 0.00096774 1.6592 -0.3455 -0.4583 -8.82781e-032 -3.18055e-015 -1.59028e-015 1.8133 -1.3724 1.3746 -1.59028e-015 3.18055e-015 -3.18055e-015 3.376 -1.1087 2.5453 0 0 -1.59028e-015 2.223 -0.7955 1.6016 -1.59028e-015 0 -0 -2.1846 20.8826 7.1545 3.16706 0.227348 4.07079 -12.7651 2.99578 -4.8475 67.9033 24.2623 -6.29687 -27.1108 -0.0961839 -0.234921 6.86306 0.504068 64.1832 -22.6162 0.0655911 -0.135506 -13.0203 35.4977 10.8341 -8.7654 0.7667 2.4346 5.1684e-015 0 -0 -3.2787 -0.7995 0.5777 6.36111e-015 -3.18055e-015 3.97569e-016 -2.2383 -0.5461 0.3945 6.75868e-015 -3.18055e-015 -2.38542e-015 -8.8962 0.8853 0.212 5.1684e-015 0 -0 -4.0539 0.0113 -0.024 0.0162675 -9.91777e-005 3.42096e-007 -2.2471 0.0069 -0.0137 -5.1684e-015 0 2.38542e-015 -8.431 0.5908 -1.9946 5.1684e-015 0 -0 -3.6785 -0.1862 -0.2303 0.0165297 -0.00103591 -5.22155e-005 -2.0962 -0.1055 -0.1317 -1.59028e-015 -3.18055e-015 1.59028e-015 -7.8236 -0.5945 -3.4447 5.1684e-015 0 -0 -2.2626 -0.4718 -0.624601 0.0170741 -0.00451995 -0.000941799 -1.6592 -0.3454 -0.4583 3.57812e-015 0 2.38542e-015 -1.8133 -1.3723 1.3745 5.1684e-015 0 -0 -3.3759 -1.1088 2.5454 6.36111e-015 -3.18055e-015 3.97569e-016 -2.223 -0.7954 1.6016 6.75868e-015 -3.18055e-015 -2.38542e-015 -9.0969 3.8439 -0.749801 -9.23349 0.198541 -12.9117 -0.727822 -39.5675 -2.91055e-005 0.00842615 5.47384 0.0656662 6.40951e-006 -38.8528 1.71912e-005 9.25417 -12.567 0.401284 5.10465e-006 -4.2703 8.9297 -1.36347e-006 1.13806e-006 -3.64401e-006 9.0968 3.8442 -0.749799 4.68694 5.12771 22.1601 0.727938 -39.5676 -4.48256e-005 -0.0107571 0.0420961 -0.217768 -2.42753e-006 -38.8527 2.69921e-006 -6.33266 -11.7381 0.241764 -3.44753e-006 -4.2703 8.9297 2.2421e-006 -8.50465e-007 1.90962e-005 
56.6242 83.6082 52.2419 0.0507877 -0.00930957 79.6147 -2.15082e-007 8.5038 -4.6017 -0.609033 0.527843 0.219583 -8.47663e-008 7.7603 0.405401 -1.22016 1.05332 0.444892 1.89184e-007 9.6025 -2.1374 -1.22016 1.05332 0.444867 -1.77675e-006 21.6389 -0.45 -3.16284e-005 2.42838e-005 1.31572e-005 -9.91394e-005 12.2197 3.3238 22.433 -36.6539 15.7079 2.1846 20.8826 7.1545 3.70751 -0.293777 -4.39736 12.7628 2.9953 -4.8467 -74.2773 30.8908 5.90456 27.1108 -0.096033 -0.234889 -5.52156 0.148564 -52.0956 22.6162 0.0655939 -0.135497 22.8737 14.9143 -9.8087 8.7654 0.7666 2.4346 -2.38542e-015 3.18055e-015 1.59028e-015 3.2787 -0.7995 0.5777 -8.82781e-032 -3.18055e-015 -1.59028e-015 2.2383 -0.5459 0.3945 7.95139e-016 -6.36111e-015 -0 8.8962 0.8853 0.212 -2.38542e-015 3.18055e-015 1.59028e-015 4.0539 0.0113 -0.0239 -0.0166562 -0.000101548 -3.19348e-007 2.2471 0.0069 -0.0137 3.97569e-015 -3.18055e-015 -7.95139e-015 8.431 0.5908 -1.9946 -2.38542e-015 3.18055e-015 1.59028e-015 3.6785 -0.1862 -0.2303 -0.0162996 -0.00102151 5.08996e-005 2.0962 -0.1055 -0.1317 -3.97569e-015 6.36111e-015 6.36111e-015 7.8236 -0.5945 -3.4447 -2.38542e-015 3.18055e-015 1.59028e-015 2.2626 -0.4719 -0.6246 -0.0175662 -0.00465067 0.00096774 1.6592 -0.3455 -0.4583 5.56597e-015 -3.18055e-015 -1.59028e-015 1.8133 -1.3724 1.3746 -2.38542e-015 3.18055e-015 1.59028e-015 3.376 -1.1087 2.5453 -8.82781e-032 -3.18055e-015 -1.59028e-015 2.223 -0.7955 1.6016 7.95139e-016 -6.36111e-015 -0 -2.1846 20.8826 7.1545 3.21359 0.227356 4.04225 -12.7651 2.99578 -4.8475 69.6797 19.1794 -7.54692 -27.1108 -0.0961839 -0.234921 6.33293 0.15346 58.5653 -22.6162 0.0655911 -0.135506 -14.3607 34.28 11.8597 -8.7654 0.7667 2.4346 -8.74653e-015 0 1.59028e-015 -3.2787 -0.7995 0.5777 -8.74653e-015 3.18055e-015 1.59028e-015 -2.2383 -0.5461 0.3945 1.19271e-015 0 1.98785e-015 -8.8962 0.8853 0.212 -8.74653e-015 0 1.59028e-015 -4.0539 0.0113 -0.024 0.0162675 -9.91777e-005 3.42096e-007 -2.2471 0.0069 -0.0137 5.56597e-015 3.18055e-015 -0 -8.431 0.5908 -1.9946 -8.74653e-015 0 1.59028e-015 -3.6785 -0.1862 -0.2303 0.0165297 -0.00103591 -5.22155e-005 -2.0962 -0.1055 -0.1317 1.98785e-015 -3.18055e-015 -1.59028e-015 -7.8236 -0.5945 -3.4447 -8.74653e-015 0 1.59028e-015 -2.2626 -0.4718 -0.624601 0.0170741 -0.00451995 -0.000941799 -1.6592 -0.3454 -0.4583 -3.97569e-016 3.18055e-015 -1.59028e-015 -1.8133 -1.3723 1.3745 -8.74653e-015 0 1.59028e-015 -3.3759 -1.1088 2.5454 -8.74653e-015 3.18055e-015 1.59028e-015 -2.223 -0.7954 1.6016 1.19271e-015 0 1.98785e-015 -9.0969 3.8439 -0.749801 -9.2643 0.080908 -13.3892 -0.727822 -39.5675 -2.91055e-005 0.00758279 6.2054 0.0657521 6.40951e-006 -38.8528 1.71912e-005 9.34157 -12.7756 0.894946 5.10465e-006 -4.2703 8.9297 -1.36347e-006 1.13806e-006 -3.64401e-006 9.0968 3.8442 -0.749799 4.75149 5.38293 21.5525 0.727938 -39.5676 1.72936e-006 -0.0110948 -0.0522901 -0.194711 -2.42753e-006 -38.8527 2.69921e-006 -6.30871 -11.7406 0.722433 -3.44753e-006 -4.2703 8.9297 2.2421e-006 -8.50465e-007 1.90962e-005 
56.6914 83.6007 52.371 0.220028 -0.213785 80.0911 -2.15082e-007 8.5038 -4.6017 -0.575906 0.543609 0.156228 -8.47664e-008 7.7603 0.405401 -1.15337 1.08561 0.318138 1.89184e-007 9.6025 -2.1374 -1.15337 1.08561 0.31813 -1.77675e-006 21.6389 -0.45 -3.16284e-005 2.42838e-005 1.31572e-005 -9.91394e-005 12.2197 3.3238 21.5174 -36.7827 14.0337 2.1846 20.8826 7.1545 3.6968 -0.293721 -4.53777 12.7628 2.9953 -4.8467 -74.442 29.8993 5.75195 27.1108 -0.096033 -0.234889 -5.04924 -0.0738696 -47.3405 22.6162 0.0655939 -0.135497 23.6946 17.5887 -10.932 8.7654 0.7666 2.4346 1.59028e-015 0 4.77083e-015 3.2787 -0.7995 0.5777 -4.77083e-015 -3.18055e-015 -3.18055e-015 2.2383 -0.5459 0.3945 8.74653e-015 3.18055e-015 -2.38542e-015 8.8962 0.8853 0.212 1.59028e-015 0 4.77083e-015 4.0539 0.0113 -0.0239 -0.0166562 -0.000101548 -3.19348e-007 2.2471 0.0069 -0.0137 5.56597e-015 -6.36111e-015 -0 8.431 0.5908 -1.9946 1.59028e-015 0 4.77083e-015 3.6785 -0.1862 -0.2303 -0.0162996 -0.00102151 5.08996e-005 2.0962 -0.1055 -0.1317 5.56597e-015 0 1.59028e-015 7.8236 -0.5945 -3.4447 1.59028e-015 0 4.77083e-015 2.2626 -0.4719 -0.6246 -0.0175662 -0.00465067 0.00096774 1.6592 -0.3455 -0.4583 -7.15625e-015 6.36111e-015 6.36111e-015 1.8133 -1.3724 1.3746 1.59028e-015 0 4.77083e-015 3.376 -1.1087 2.5453 -4.77083e-015 -3.18055e-015 -3.18055e-015 2.223 -0.7955 1.6016 8.74653e-015 3.18055e-015 -2.38542e-015 -2.1846 20.8826 7.1545 3.34623 0.232211 3.96367 -12.7651 2.99578 -4.8475 69.4256 17.9976 -7.59638 -27.1108 -0.0961839 -0.234921 5.73338 -0.161094 52.576 -22.6162 0.0655911 -0.135506 -13.7801 30.8302 11.1658 -8.7654 0.7667 2.4346 -1.59028e-015 0 4.77083e-015 -3.2787 -0.7995 0.5777 2.38542e-015 0 3.18055e-015 -2.2383 -0.5461 0.3945 -6.36111e-015 3.18055e-015 -7.95139e-015 -8.8962 0.8853 0.212 -1.59028e-015 0 4.77083e-015 -4.0539 0.0113 -0.024 0.0162675 -9.91777e-005 3.42096e-007 -2.2471 0.0069 -0.0137 -9.54166e-015 6.36111e-015 1.19271e-014 -8.431 0.5908 -1.9946 -1.59028e-015 0 4.77083e-015 -3.6785 -0.1862 -0.2303 0.0165297 -0.00103591 -5.22155e-005 -2.0962 -0.1055 -0.1317 2.38542e-015 -6.36111e-015 7.15625e-015 -7.8236 -0.5945 -3.4447 -1.59028e-015 0 4.77083e-015 -2.2626 -0.4718 -0.624601 0.0170741 -0.00451995 -0.000941799 -1.6592 -0.3454 -0.4583 -4.77083e-015 0 2.38542e-015 -1.8133 -1.3723 1.3745 -1.59028e-015 0 4.77083e-015 -3.3759 -1.1088 2.5454 2.38542e-015 0 3.18055e-015 -2.223 -0.7954 1.6016 -6.36111e-015 3.18055e-015 -7.95139e-015 -9.0969 3.8439 -0.749801 -9.01658 0.395254 -13.513 -0.727822 -39.5675 -0.000114482 0.00741789 6.34821 0.0657701 6.40951e-006 -38.8528 1.71912e-005 9.21203 -12.9657 0.60799 5.10465e-006 -4.2703 8.9297 -1.36347e-006 1.13806e-006 -3.64401e-006 9.0968 3.8442 -0.749799 5.05634 5.51488 21.3874 0.727938 -39.5676 0.000117792 -0.0109176 -0.000155934 -0.19954 -2.42753e-006 -38.8527 2.69921e-006 -6.46779 -11.7038 0.383312 -3.44753e-006 -4.2703 8.9297 2.2421e-006 -8.50465e-007 1.90962e-005 
56.7594 83.5978 52.4902 0.402544 -0.347978 80.6589 -2.15082e-007 8.5038 -4.6017 -0.543033 0.560923 0.0719577 -8.47664e-008 7.7603 0.405401 -1.08685 1.12114 0.14922 1.89184e-007 9.6025 -2.1374 -1.08685 1.12114 0.149221 -1.77675e-006 21.6389 -0.45 -3.16284e-005 2.42838e-005 1.31572e-005 -9.91394e-005 12.2197 3.3238 20.1579 -37.0532 11.8627 2.1846 20.8826 7.1545 3.58137 -0.289797 -4.6218 12.7628 2.9953 -4.8467 -74.6845 28.4268 5.57857 27.1108 -0.096033 -0.234889 -4.51159 -0.272019 -42.1193 22.6162 0.0655939 -0.135497 24.1506 19.5423 -11.4554 8.7654 0.7666 2.4346 3.97569e-015 0 -2.78299e-015 3.2787 -0.7995 0.5777 4.37326e-015 0 7.95139e-016 2.2383 -0.5459 0.3945 4.77083e-015 0 1.59028e-015 8.8962 0.8853 0.212 3.97569e-015 0 -2.78299e-015 4.0539 0.0113 -0.0239 -0.0166562 -0.000101548 -3.19348e-007 2.2471 0.0069 -0.0137 -7.55382e-015 -3.18055e-015 5.96354e-015 8.431 0.5908 -1.9946 3.97569e-015 0 -2.78299e-015 3.6785 -0.1862 -0.2303 -0.0162996 -0.00102151 5.08996e-005 2.0962 -0.1055 -0.1317 4.37326e-015 -6.36111e-015 -1.59028e-015 7.8236 -0.5945 -3.4447 3.97569e-015 0 -2.78299e-015 2.2626 -0.4719 -0.6246 -0.0175662 -0.00465067 0.00096774 1.6592 -0.3455 -0.4583 -3.18055e-015 3.18055e-015 -0 1.8133 -1.3724 1.3746 3.97569e-015 0 -2.78299e-015 3.376 -1.1087 2.5453 4.37326e-015 0 7.95139e-016 2.223 -0.7955 1.6016 4.77083e-015 0 1.59028e-015 -2.1846 20.8826 7.1545 3.41553 0.239081 3.99701 -12.7651 2.99578 -4.8475 69.4094 16.1047 -7.92697 -27.1108 -0.0961839 -0.234921 5.11185 -0.408757 46.6546 -22.6162 0.0655911 -0.135506 -12.995 27.5264 9.73435 -8.7654 0.7667 2.4346 4.77083e-015 -3.18055e-015 -4.77083e-015 -3.2787 -0.7995 0.5777 3.53113e-031 3.18055e-015 -6.36111e-015 -2.2383 -0.5461 0.3945 -4.77083e-015 -3.18055e-015 -3.18055e-015 -8.8962 0.8853 0.212 4.77083e-015 -3.18055e-015 -4.77083e-015 -4.0539 0.0113 -0.024 0.0162675 -9.91777e-005 3.42096e-007 -2.2471 0.0069 -0.0137 -1.59028e-015 -3.18055e-015 -1.59028e-015 -8.431 0.5908 -1.9946 4.77083e-015 -3.18055e-015 -4.77083e-015 -3.6785 -0.1862 -0.2303 0.0165297 -0.00103591 -5.22155e-005 -2.0962 -0.1055 -0.1317 -1.59028e-015 0 -4.77083e-015 -7.8236 -0.5945 -3.4447 4.77083e-015 -3.18055e-015 -4.77083e-015 -2.2626 -0.4718 -0.624601 0.0170741 -0.00451995 -0.000941799 -1.6592 -0.3454 -0.4583 -7.06225e-031 6.36111e-015 6.36111e-015 -1.8133 -1.3723 1.3745 4.77083e-015 -3.18055e-015 -4.77083e-015 -3.3759 -1.1088 2.5454 3.53113e-031 3.18055e-015 -6.36111e-015 -2.223 -0.7954 1.6016 -4.77083e-015 -3.18055e-015 -3.18055e-015 -9.0969 3.8439 -0.749801 -8.84585 0.66589 -13.6835 -0.727822 -39.5675 0.000143234 0.00709042 6.63158 0.0658071 6.40951e-006 -38.8528 1.71912e-005 9.12708 -13.2413 0.284908 5.10465e-006 -4.2703 8.9297 -1.36347e-006 1.13806e-006 -3.64401e-006 9.0968 3.8442 -0.749799 5.29065 5.66197 21.1571 0.72803 -39.5676 -5.9857e-005 -0.0110319 -0.0324122 -0.202978 -2.42753e-006 -38.8527 2.69921e-006 -6.61633 -11.6186 0.0337759 -3.44753e-006 -4.2703 8.9297 2.2421e-006 -8.50465e-007 1.90962e-005 
